<?xml version="1.0" standalone="no"?>
<!DOCTYPE svg PUBLIC "-//W3C//DTD SVG 20010904//EN"
 "http://www.w3.org/TR/2001/REC-SVG-20010904/DTD/svg10.dtd">
<svg version="1.0" xmlns="http://www.w3.org/2000/svg"
 width="154.000000pt" height="154.000000pt" viewBox="0 0 154.000000 154.000000"
 preserveAspectRatio="xMidYMid meet">
<metadata>
Created by potrace 1.14, written by Peter Selinger 2001-2017
</metadata>
<g transform="translate(0.000000,154.000000) scale(0.100000,-0.100000)"
fill="#000000" stroke="none">
<path d="M620 1526 c-163 -36 -292 -108 -404 -224 -87 -90 -147 -193 -187
-322 -37 -118 -31 -371 11 -460 4 -8 23 -49 43 -91 47 -101 110 -179 222 -274
64 -54 221 -124 325 -143 68 -13 263 -6 330 11 331 88 564 375 575 712 9 234
-56 403 -222 580 -75 81 -225 167 -348 201 -76 20 -272 26 -345 10z"/>
</g>
</svg>
